Patient4_TMGait_0pt4_03_left_22_EMG.mot
version=1
nRows=16
nColumns=33
inDegrees=no
endheader
time	1LAddLong	2LGlutMax	3LGlutMed	4LIliopsoas	5LSemiMemb	6LBicFemLong	7LRecFem	8LVastMed	9LVastLat	10LGasMed	11LTibAnt	12lTibPost	13LPeroneusLong	14LSol	15LExtDigLong	16LFlexDigLong	17RAddLong	18RGlutMax	19RGlutMed	20RIliopsoas	21RSemiMemb	22RBicFemLong	23RRecFem	24RVastMed	25RVastLat	26RGasMed	27RTibAnt	28RTibPost	29RPeroneusLong	30RSol	31RExtDigLong	32RFlexDigLong
29.705	0.007477	0.066376	-0.092773	0.001526	0.003967	-0.13275	0.29083	0.005951	-0.011597	0.066071	0.015717	-0.007477	-0.002747	-0.10101	-0.014496	0.003815	-0.012207	-0.039978	-0.1648	-0.012665	-0.25482	-0.14679	-0.11307	0.014343	-0.012207	-0.002441	-0.1088	0.00351	-1.1218	-0.013123	-0.00351	-0.022278
29.706	0.006866	0.063934	-0.036621	-0.001068	-0.002136	-0.11246	0.28946	0.007935	-0.012207	0.04364	-0.008087	-0.008087	0.006104	-0.053101	-0.000305	0.003204	-0.000153	0.00885	-0.13596	-0.010223	-0.092163	-0.159	-0.035706	-0.045624	0.063782	-0.009003	-0.079803	0.006409	0.33997	0.007324	-0.001984	-0.022278
29.707	0.010376	0.066223	-0.11581	0.001984	-0.002289	-0.094147	0.29633	0.002899	-0.004578	0.028229	0.00412	0.007019	-0.025787	-0.037994	0.012512	0.003204	0.029755	0.053711	-0.15701	0.005035	0.20508	-0.12299	0.010529	-0.19623	0.20767	-0.013733	-0.01236	0.001221	0.39429	0	-0.000763	-0.018616
29.708	0.008087	0.031281	-0.16434	-0.000305	0.010986	-0.075378	0.29724	0.004578	-0.001984	0.028839	-0.002747	0.006104	-0.095978	0.044403	0.014038	-0.00061	0.019073	0.067749	-0.11627	0.006104	0.59616	-0.050964	-0.016022	-0.15564	0.27405	-0.000763	0.020599	0.005188	-0.63889	-0.033875	-0.002289	-0.019531
29.709	0.008545	0.090942	-0.19287	0.006866	0.012054	0.11612	0.30395	0.001526	0.00824	0.034027	0.012665	0.013885	0.061646	0.11536	-0.009155	-0.003815	-0.061951	0.050049	-0.24231	0.023041	0.57877	-0.015259	-0.055237	-0.010529	0.39978	-0.00061	0.063324	0.005646	-0.31372	0.052643	0.005188	-0.016632
29.71	0.015869	0.032501	-0.2179	0.008698	0.011139	0.054932	0.29343	-0.005798	0.008392	0.038757	0.017395	0.010376	0.036469	0.10284	-0.033722	0.005188	-0.021057	0.066223	-0.26947	0.027924	0.13382	0.033569	0.017853	0.087128	0.38834	-0.005188	0.11459	0.006714	-0.19653	0.001373	-0.007019	-0.016937
29.711	0.001831	0.04425	-0.26199	0.012665	-0.010681	0.012054	0.30289	-0.00061	0.000458	0.01236	0.018005	0.002747	-0.024567	0.035095	-0.039673	-0.00885	0.002289	0.13611	-0.31708	-0.02121	-0.20447	0.091553	0.10193	0.005035	0.27618	0.000916	0.13962	0.005798	-0.26413	-0.037079	-0.003815	-0.016327
29.712	0.019073	0.04715	-0.20706	-0.001068	-0.004425	-0.016022	0.30823	0.001831	0.015564	0.038605	0.017853	0.003815	0.019226	-0.039978	-0.037079	-0.001221	-0.040436	0.1889	-0.40543	-0.068817	-0.10056	0.078125	0.072632	0.059509	0.11215	0.002441	0.012512	0.004425	0.13947	-0.07431	-0.001221	-0.010376
29.713	0.010834	0.065308	-0.13672	0.006714	0.001526	-0.13596	0.31586	-0.000916	0.013123	0.012665	0.005341	-0.000458	0.078278	-0.062103	-0.005798	0.010071	-0.069427	0.18356	-0.35294	-0.084686	-0.1294	0.13046	0.074921	0.10025	-0.12726	0.001221	-0.027771	-0.001373	-0.058136	-0.085144	-0.001526	-0.010376
29.714	0.008698	0.10193	-0.093384	0.01358	0.006866	-0.076904	0.31128	-0.007172	0.004883	0.010376	0.005035	0.004578	0.043793	-0.070496	0.011749	0.001373	-0.040588	0.28397	0.002289	-0.14297	-0.1001	0.1152	0.087128	0.016327	-0.41489	-0.000458	-0.029144	0.00412	0.026093	-0.046539	-0.001373	-0.005798
29.715	0.007019	0.061035	-0.11978	0.009308	0.01358	0.02243	0.31509	-0.001526	0.005798	0.10681	0.014648	0.009918	0.036926	-0.096436	0.018768	0.001221	-0.068054	0.23117	0.12024	-0.13229	0.13626	0.088654	0.057831	0.056915	-0.77728	0.000153	0.044861	0.004272	0.1828	-0.059052	-0.000458	-0.010071
29.716	0.00885	0.070343	-0.097961	0	0.013428	0.002594	0.34958	0.005188	0.012817	0.15701	0.026398	-0.007019	-0.058746	-0.1384	0.001068	-0.007019	-0.092621	0.21774	-0.006561	-0.059662	0.096283	0.085754	-0.19028	0.14923	-0.61295	-0.003967	0.06073	0.001373	0.19592	-0.029297	0.001373	-0.009918
29.717	0.002136	0.092163	-0.079498	-0.004425	0.00351	-0.032349	0.30853	0.005188	0.018005	0.14923	0.017242	0.001221	-0.032806	-0.1358	0.005188	0.001678	-0.058136	0.23148	-0.65018	0.10025	0.2092	0.018616	-0.12741	0.012054	-0.3125	-0.001221	0.041809	0.004272	-0.10193	-0.017853	-0.001831	-0.011597
29.718	0.005341	0.10391	-0.083008	0.000763	0.006409	-0.001678	0.32806	0.001831	0.017395	0.25971	-0.016785	0.001526	0.16968	-0.18829	-0.022583	0.001831	-0.036469	0.28046	-0.61737	0.066681	0.35477	-0.057831	-0.11627	-0.012665	-0.19928	0.002441	-0.003052	0.001984	-0.24933	-0.038605	-0.001678	-0.013885
29.719	-0.002747	0.12299	-0.081787	0.007629	-0.00824	0.02594	0.35172	0.003967	0.015717	0.44327	-0.044403	0.006561	0.22446	-0.15625	0.028076	0.001678	0.010681	0.33585	0.023041	-0.092316	0.17303	-0.059662	-0.11292	-0.098877	-0.12619	-0.000916	-0.051575	0.00412	-0.057983	-0.051575	-0.002747	-0.013123
29.72	0.002747	0.090637	-0.085449	0.005493	-0.00824	-0.00412	0.34393	-0.003815	0.013123	0.17792	-0.043335	0.012512	0.11459	-0.14267	0.080414	-0.009003	0.057373	0.33249	0.38773	-0.088806	-0.041656	-0.061035	-0.00946	-0.10574	-0.1651	-0.007324	-0.082855	-0.00061	0.030212	0.041809	-0.003662	-0.016022
